<svg width="1080" height="1080" viewBox="0 0 1080 1080" fill="none" xmlns="http://www.w3.org/2000/svg">
  <defs>
    <pattern id="grid" width="54" height="54" patternUnits="userSpaceOnUse"><path d="M54 0H0V54" stroke="#EAF3EC" stroke-opacity="0.035"/></pattern>
    <radialGradient id="glow" cx="0" cy="0" r="1" gradientUnits="userSpaceOnUse" gradientTransform="translate(635 540) rotate(90) scale(410)"><stop stop-color="#B8FF95" stop-opacity="0.12"/><stop offset="1" stop-color="#B8FF95" stop-opacity="0"/></radialGradient>
    <filter id="shadow" x="-50%" y="-50%" width="200%" height="200%"><feDropShadow dx="0" dy="18" stdDeviation="24" flood-color="#000" flood-opacity="0.28"/></filter>
  </defs>
  <rect width="1080" height="1080" fill="#07110D"/>
  <rect width="1080" height="1080" fill="url(#grid)"/>
  <rect width="1080" height="1080" fill="url(#glow)"/>

  <g transform="translate(66 64)">
    <rect width="38" height="38" rx="11" fill="#F3F7F4"/>
    <path d="M10 28V22H15V28H10ZM17 28V15H22V28H17ZM24 28V9H29V28H24Z" fill="#07110D"/>
    <text x="52" y="29" fill="#F1F6F2" font-family="Arial, sans-serif" font-size="25" font-weight="700" letter-spacing="-1">FinFlow</text>
  </g>

  <text x="66" y="160" fill="#7E8C84" font-family="Courier New, monospace" font-size="15" letter-spacing="2.5">MULTI-RAIL SETTLEMENT / MTO + PSP</text>
  <text x="66" y="246" fill="#F2F7F3" font-family="Arial, sans-serif" font-size="78" font-weight="600" letter-spacing="-4.7">One control plane.</text>
  <text x="66" y="328" fill="#B8FF95" font-family="Arial, sans-serif" font-size="78" font-weight="600" letter-spacing="-4.7">Five payout rails.</text>
  <text x="66" y="388" fill="#8B9991" font-family="Arial, sans-serif" font-size="24">A clearer route from instruction to payout.</text>

  <g transform="translate(66 508)" filter="url(#shadow)">
    <rect width="210" height="138" rx="18" fill="#0C1B14" stroke="#EAF3EC" stroke-opacity="0.12"/>
    <text x="16" y="26" fill="#66756D" font-family="Courier New, monospace" font-size="10" letter-spacing="1.2">PAYOUT INSTRUCTION</text>
    <text x="16" y="64" fill="#F3F7F4" font-family="Arial, sans-serif" font-size="29" font-weight="700">$2,840.00</text>
    <text x="16" y="90" fill="#B8FF95" font-family="Courier New, monospace" font-size="13">USD → PHP</text>
    <text x="16" y="116" fill="#7C8981" font-family="Arial, sans-serif" font-size="11">Destination · Wallet</text>
  </g>

  <path d="M276 577H384" stroke="#B8FF95" stroke-width="2"/>
  <circle cx="330" cy="577" r="5" fill="#B8FF95"/>

  <g transform="translate(384 492)" filter="url(#shadow)">
    <circle cx="92" cy="92" r="88" fill="#0B1912" stroke="#B8FF95" stroke-opacity="0.5"/>
    <circle cx="92" cy="92" r="72" stroke="#B8FF95" stroke-opacity="0.16" stroke-dasharray="5 8"/>
    <rect x="74" y="55" width="36" height="36" rx="10" fill="#B8FF95"/>
    <path d="M83 82V77H87V82H83ZM89 82V70H93V82H89ZM95 82V65H99V82H95Z" fill="#07110D"/>
    <text x="92" y="113" fill="#F3F7F4" font-family="Arial, sans-serif" font-size="17" font-weight="700" text-anchor="middle">FinFlow</text>
    <text x="92" y="132" fill="#718078" font-family="Courier New, monospace" font-size="8" text-anchor="middle">CONTROL PLANE</text>
  </g>

  <path d="M568 584C654 584 666 500 748 500" stroke="#B8FF95" stroke-width="2"/>
  <path d="M568 584C654 584 674 442 748 438" stroke="#EAF3EC" stroke-opacity="0.12"/>
  <path d="M568 584C654 584 674 562 748 562" stroke="#EAF3EC" stroke-opacity="0.12"/>
  <path d="M568 584C654 584 674 624 748 624" stroke="#EAF3EC" stroke-opacity="0.12"/>
  <path d="M568 584C654 584 674 686 748 686" stroke="#EAF3EC" stroke-opacity="0.12"/>

  <g transform="translate(748 405)">
    <g><rect width="266" height="54" rx="12" fill="#0C1B14" stroke="#EAF3EC" stroke-opacity="0.09"/><text x="16" y="24" fill="#F1F6F2" font-family="Arial" font-size="13" font-weight="700">Bank</text><text x="16" y="40" fill="#6D7B73" font-family="Arial" font-size="9">Account settlement</text><text x="197" y="31" fill="#6D7B73" font-family="Courier New" font-size="8">AVAILABLE</text></g>
    <g transform="translate(0 62)"><rect width="266" height="62" rx="12" fill="#142A1C" stroke="#B8FF95" stroke-opacity="0.66"/><rect x="14" y="14" width="34" height="34" rx="9" fill="#B8FF95"/><text x="22" y="36" fill="#07110D" font-family="Courier New" font-size="9" font-weight="700">02</text><text x="60" y="27" fill="#F1F6F2" font-family="Arial" font-size="13" font-weight="700">Wallet</text><text x="60" y="44" fill="#809087" font-family="Arial" font-size="9">Digital wallet payout</text><text x="196" y="35" fill="#B8FF95" font-family="Courier New" font-size="8">SELECTED</text></g>
    <g transform="translate(0 132)"><rect width="266" height="54" rx="12" fill="#0C1B14" stroke="#EAF3EC" stroke-opacity="0.09"/><text x="16" y="24" fill="#F1F6F2" font-family="Arial" font-size="13" font-weight="700">Card</text><text x="16" y="40" fill="#6D7B73" font-family="Arial" font-size="9">Card-based payout</text><text x="197" y="31" fill="#6D7B73" font-family="Courier New" font-size="8">AVAILABLE</text></g>
    <g transform="translate(0 194)"><rect width="266" height="54" rx="12" fill="#0C1B14" stroke="#EAF3EC" stroke-opacity="0.09"/><text x="16" y="24" fill="#F1F6F2" font-family="Arial" font-size="13" font-weight="700">Stablecoin</text><text x="16" y="40" fill="#6D7B73" font-family="Arial" font-size="9">Digital-asset rail</text><text x="197" y="31" fill="#6D7B73" font-family="Courier New" font-size="8">AVAILABLE</text></g>
    <g transform="translate(0 256)"><rect width="266" height="54" rx="12" fill="#0C1B14" stroke="#EAF3EC" stroke-opacity="0.09"/><text x="16" y="24" fill="#F1F6F2" font-family="Arial" font-size="13" font-weight="700">Cash payout</text><text x="16" y="40" fill="#6D7B73" font-family="Arial" font-size="9">Agent / pickup network</text><text x="197" y="31" fill="#6D7B73" font-family="Courier New" font-size="8">AVAILABLE</text></g>
  </g>

  <g transform="translate(66 908)">
    <line x1="0" y1="0" x2="948" y2="0" stroke="#EAF3EC" stroke-opacity="0.11"/>
    <text x="0" y="48" fill="#A6B2AB" font-family="Arial, sans-serif" font-size="21">Move money with every route in view.</text>
    <rect x="680" y="20" width="268" height="54" rx="12" fill="#B8FF95"/>
    <text x="716" y="54" fill="#07110D" font-family="Arial, sans-serif" font-size="13" font-weight="700">Explore Multi-Rail Settlement  ↗</text>
  </g>
</svg>
